<svg xmlns="http://www.w3.org/2000/svg" width="16" height="16" fill="currentColor" viewBox="0 0 16 16"><path d="M4.93262 7.02051v.00293c.2649.07897.41474.35618.33593.62109C5.08956 8.24352 5 8.86896 5 9.50195c0 .63305.08955 1.25845.26855 1.85745.07884.2649-.07101.5431-.33593.622a.514.514 0 0 1-.14258.0206c-.216 0-.41549-.1405-.47949-.3575C4.10365 10.9527 4 10.2318 4 9.50098s.10365-1.45172.31055-2.14356c.07895-.26384.35522-.41659.62207-.33691m6.13478-.00098c.2668-.07969.5431.07307.6221.33692v-.00196c.2068.69183.3105 1.41275.3105 2.14356 0 .73085-.1036 1.45175-.3105 2.14355-.064.217-.2635.3574-.4795.3574-.047 0-.0947-.0075-.1426-.0215-.2649-.0789-.4148-.3561-.336-.6211.179-.5989.2686-1.2244.2686-1.85738 0-.633-.0896-1.25842-.2686-1.85742-.0788-.26492.0711-.54309.336-.62207m-1.91896.62695c.195-.195.51303-.195.70703 0 .19333.19489.19433.51118 0 .70606L8.64453 9.56348l.43457.65132.06934-.0683c.195-.19502.51203-.19502.70703 0 .19433.1949.19433.5112 0 .706l-.5.5c-.095.094-.22249.1465-.35449.1465-.01497 0-.02994-.0009-.0459-.0019h-.00293c-.14891-.014-.28418-.0949-.36719-.2198l-.66211-.9931-1.06933 1.0683c-.098.097-.22553.1465-.35352.1465-.128 0-.25649-.0485-.35449-.1465-.19453-.195-.19289-.5112.00195-.706l1.20996-1.21095-.43457-.65137-.06933.06836c-.195.195-.51106.19499-.70606 0-.195-.195-.195-.51106 0-.70606l.5-.5c.10596-.10595.25041-.15548.40234-.14453.14892.01399.28418.09486.36719.21973l.66211.99316z"/><path fill-rule="evenodd" d="M12 1c1.657 0 3 1.343 3 3v8c0 1.657-1.343 3-3 3H4c-1.657 0-3-1.343-3-3V4c0-1.657 1.343-3 3-3zM2 5v7c0 1.105.895 2 2 2h8c1.105 0 2-.895 2-2V5zm2-3c-1.105 0-2 .895-2 2h12c0-1.105-.895-2-2-2z" clip-rule="evenodd"/></svg>